<?xml version="1.0" standalone="no"?>
<!DOCTYPE svg PUBLIC "-//W3C//DTD SVG 20010904//EN"
 "http://www.w3.org/TR/2001/REC-SVG-20010904/DTD/svg10.dtd">
<svg version="1.0" xmlns="http://www.w3.org/2000/svg"
 width="303.000000pt" height="287.000000pt" viewBox="0 0 303.000000 287.000000"
 preserveAspectRatio="xMidYMid meet">

<g transform="translate(0.000000,287.000000) scale(0.100000,-0.100000)"
fill="#000000" stroke="none">
<path d="M0 1435 l0 -1435 1515 0 1515 0 0 1435 0 1435 -1515 0 -1515 0 0
-1435z m802 1228 c12 -10 29 -31 38 -46 l17 -28 144 -1 c79 0 178 3 220 7 l75
7 32 -32 c64 -64 32 -155 -76 -217 -26 -15 -49 -28 -51 -30 -3 -2 75 -83 171
-181 147 -148 177 -184 183 -215 9 -47 -8 -90 -47 -120 -28 -23 -29 -23 -13
-60 14 -35 14 -41 -3 -80 -24 -55 -42 -68 -98 -75 -36 -4 -51 0 -74 17 -16 11
-32 21 -36 21 -3 0 -22 -13 -41 -30 -24 -22 -44 -30 -71 -30 -44 0 -74 19
-136 84 l-46 49 -28 -26 c-31 -30 -69 -34 -110 -13 -15 8 -90 79 -167 157
-151 155 -209 242 -221 333 -4 28 -12 46 -20 46 -20 0 -70 47 -84 80 -7 16 -9
42 -6 56 8 29 243 276 311 326 33 24 47 29 78 25 21 -3 48 -14 59 -24z m281
-1333 c41 -36 42 -36 74 -10 17 13 41 20 70 20 38 0 51 -6 78 -33 41 -41 52
-79 36 -124 -12 -32 -11 -36 23 -73 30 -34 36 -47 36 -86 l0 -46 -182 -184
c-100 -101 -179 -185 -177 -187 2 -2 25 -15 51 -30 108 -62 141 -158 76 -219
-32 -30 -34 -30 -108 -23 -115 12 -364 7 -369 -7 -2 -6 -19 -27 -37 -47 -28
-31 -38 -36 -78 -36 l-46 0 -160 161 -160 160 0 56 c0 46 4 59 26 82 15 14 35
26 45 26 13 0 19 7 19 23 0 41 39 140 76 194 48 69 306 321 338 329 34 8 67
-1 96 -26 l24 -21 57 58 c31 31 65 60 75 64 42 17 83 9 117 -21z m970 19 c12
-6 48 -36 80 -67 31 -31 57 -52 57 -46 0 17 56 44 92 44 30 0 50 -17 198 -167
177 -179 217 -238 228 -329 4 -39 9 -47 33 -56 36 -12 69 -65 69 -110 0 -46
-27 -80 -192 -240 -140 -137 -169 -153 -224 -126 -16 7 -40 30 -54 51 l-26 38
-144 1 c-80 1 -177 -2 -217 -7 l-72 -8 -36 36 c-41 41 -46 84 -15 134 20 33
87 88 121 98 10 4 19 12 19 18 0 7 -77 89 -171 183 -180 180 -195 203 -178
269 5 17 22 42 40 56 26 23 29 30 20 47 -27 51 -2 130 49 157 42 22 102 19
134 -6 l26 -21 36 31 c37 33 86 41 127 20z"/>
<path d="M567 2471 c-159 -158 -167 -174 -110 -200 25 -11 31 -7 174 136 82
81 149 155 149 164 0 22 -26 49 -48 49 -9 0 -83 -67 -165 -149z"/>
<path d="M866 2515 c-28 -10 -84 -58 -189 -162 l-148 -148 5 -44 c10 -75 54
-139 205 -294 107 -110 150 -147 165 -145 39 6 30 40 -23 92 -43 40 -49 51
-41 67 6 10 19 19 30 19 11 0 73 -53 146 -126 70 -69 135 -129 144 -134 25
-13 64 21 57 51 -3 13 -54 71 -112 128 -58 57 -105 107 -105 111 0 4 9 15 20
25 18 17 21 16 57 -13 21 -16 93 -87 161 -156 74 -76 131 -126 143 -126 23 0
59 34 59 57 0 9 -71 87 -157 175 -87 87 -157 164 -155 170 2 6 11 17 20 24 15
11 34 -5 144 -112 70 -68 136 -124 146 -124 18 0 62 39 62 55 0 5 -95 104
-212 222 -200 202 -210 214 -195 231 9 10 42 26 72 36 35 11 71 32 96 56 36
34 39 41 29 60 -11 21 -16 22 -79 15 -91 -11 -164 -11 -241 -3 -47 6 -76 4
-104 -7z"/>
<path d="M868 1164 c-137 -137 -158 -150 -182 -112 -9 15 -2 27 43 72 46 47
52 57 41 70 -7 9 -18 16 -25 16 -7 0 -80 -67 -161 -150 -122 -122 -155 -162
-181 -217 -18 -37 -33 -79 -33 -93 0 -33 282 -319 332 -337 41 -15 105 -16
180 -4 40 7 79 6 134 -4 88 -15 114 -8 114 30 0 31 -60 80 -125 101 -59 20
-75 31 -75 53 0 9 92 108 205 221 113 113 205 212 205 221 0 16 -40 59 -54 59
-4 0 -68 -58 -142 -130 -74 -71 -138 -130 -143 -130 -6 0 -17 10 -25 22 -15
22 -11 27 149 188 91 92 165 170 165 174 0 35 -50 72 -78 57 -10 -5 -83 -76
-163 -156 -152 -154 -169 -168 -192 -159 -40 15 -25 43 89 160 63 64 114 124
114 134 0 18 -30 50 -46 50 -5 0 -70 -61 -146 -136z"/>
<path d="M282 650 c-12 -12 -22 -24 -22 -28 0 -4 69 -76 154 -161 128 -128
157 -152 175 -146 11 3 24 18 27 32 6 22 -10 42 -142 174 -82 82 -154 149
-159 149 -6 0 -21 -9 -33 -20z"/>
<path d="M1977 1282 c-10 -10 -17 -27 -17 -38 0 -11 45 -65 109 -128 89 -88
108 -113 101 -127 -24 -43 -40 -33 -199 126 -124 122 -162 155 -184 155 -27 0
-47 -24 -47 -57 0 -10 70 -88 156 -174 147 -147 155 -157 143 -178 -8 -11 -20
-21 -28 -21 -7 0 -71 57 -142 126 -110 107 -130 124 -147 115 -27 -14 -44 -38
-40 -54 2 -8 92 -106 201 -217 144 -147 197 -208 195 -223 -3 -22 -12 -28 -78
-51 -55 -19 -120 -71 -120 -96 0 -33 26 -43 88 -34 31 4 118 7 193 5 100 -2
144 1 162 11 14 7 92 78 172 158 l147 145 -6 42 c-11 85 -44 132 -200 291 -86
87 -157 152 -168 152 -38 0 -31 -30 21 -85 45 -47 50 -58 41 -75 -6 -11 -18
-20 -28 -20 -9 0 -78 61 -152 135 -74 74 -140 135 -146 135 -6 0 -18 -8 -27
-18z"/>
<path d="M2538 523 c-81 -81 -148 -155 -148 -164 0 -18 31 -49 49 -49 20 0
311 291 311 310 0 20 -31 50 -50 50 -7 0 -80 -66 -162 -147z"/>
</g>
</svg>
